<svg width="18" height="18" viewBox="0 0 18 18" fill="none" xmlns="http://www.w3.org/2000/svg">
<g clip-path="url(#clip0_265_138)">
<path d="M9 11.25C10.2426 11.25 11.25 10.2426 11.25 9C11.25 7.75736 10.2426 6.75 9 6.75C7.75736 6.75 6.75 7.75736 6.75 9C6.75 10.2426 7.75736 11.25 9 11.25Z" stroke="#724A15" stroke-width="1.5" stroke-linecap="round" stroke-linejoin="round"/>
<path d="M14.625 11.25C14.5094 11.4844 14.4656 11.7481 14.4994 12.0075C14.5331 12.2669 14.6428 12.5105 14.8147 12.7069L14.8613 12.7535C15.0009 12.8929 15.1113 13.0581 15.1863 13.2398C15.2612 13.4215 15.2995 13.6161 15.2995 13.8127C15.2995 14.0093 15.2612 14.2039 15.1863 14.3856C15.1113 14.5673 15.0009 14.7325 14.8613 14.8719C14.7219 15.0115 14.5567 15.1219 14.375 15.1968C14.1933 15.2718 13.9987 15.3101 13.8021 15.3101C13.6055 15.3101 13.4109 15.2718 13.2292 15.1968C13.0475 15.1219 12.8823 15.0115 12.7429 14.8719L12.6963 14.8253C12.4999 14.6534 12.2563 14.5437 11.9969 14.51C11.7375 14.4762 11.4738 14.52 11.2394 14.6356C11.0091 14.7468 10.8175 14.9256 10.6894 15.1493C10.5614 15.373 10.5027 15.6318 10.5209 15.8906V16.0313C10.5209 16.4272 10.3635 16.8069 10.083 17.0874C9.80257 17.3679 9.42282 17.5253 9.02693 17.5253C8.63104 17.5253 8.25129 17.3679 7.97081 17.0874C7.69034 16.8069 7.53297 16.4272 7.53297 16.0313V15.9615C7.50666 15.693 7.40156 15.4385 7.23106 15.2304C7.06056 15.0224 6.83228 14.8698 6.57447 14.7918C6.34002 14.6762 6.07632 14.6324 5.81692 14.6662C5.55752 14.6999 5.31388 14.8097 5.1175 14.9816L5.07088 15.0282C4.93148 15.1678 4.76627 15.2782 4.58457 15.3531C4.40286 15.4281 4.20827 15.4664 4.01167 15.4664C3.81507 15.4664 3.62047 15.4281 3.43877 15.3531C3.25707 15.2782 3.09186 15.1678 2.95246 15.0282C2.81284 14.8888 2.70245 14.7236 2.6275 14.5419C2.55255 14.3602 2.51424 14.1656 2.51424 13.969C2.51424 13.7724 2.55255 13.5778 2.6275 13.3961C2.70245 13.2144 2.81284 13.0492 2.95246 12.9098L2.99908 12.8632C3.17098 12.6668 3.28069 12.4232 3.31446 12.1638C3.34823 11.9044 3.30439 11.6407 3.18879 11.4063C3.07754 11.1759 2.8988 10.9844 2.67507 10.8563C2.45134 10.7282 2.19258 10.6695 1.93375 10.6878H1.79304C1.39715 10.6878 1.0174 10.5304 0.736918 10.2499C0.456445 9.96946 0.299072 9.58971 0.299072 9.19382C0.299072 8.79793 0.456445 8.41818 0.736918 8.1377C1.0174 7.85723 1.39715 7.69986 1.79304 7.69986H1.86288C2.13142 7.67354 2.3859 7.56844 2.59397 7.39794C2.80203 7.22745 2.9546 6.99916 3.03261 6.74136C3.1482 6.50691 3.19205 6.24321 3.15827 5.98381C3.1245 5.72441 3.01479 5.48077 2.8429 5.28439L2.79628 5.23777C2.65666 5.09837 2.54627 4.93316 2.47132 4.75146C2.39637 4.56975 2.35806 4.37516 2.35806 4.17856C2.35806 3.98196 2.39637 3.78737 2.47132 3.60566C2.54627 3.42396 2.65666 3.25875 2.79628 3.11935C2.93568 2.97973 3.10089 2.86934 3.28259 2.79439C3.4643 2.71944 3.65889 2.68113 3.85549 2.68113C4.05209 2.68113 4.24668 2.71944 4.42839 2.79439C4.6101 2.86934 4.7753 2.97973 4.9147 3.11935L4.96132 3.16597C5.1577 3.33787 5.40134 3.44758 5.66074 3.48135C5.92014 3.51512 6.18384 3.47128 6.41829 3.35568H6.46491C6.69526 3.24443 6.88676 3.06569 7.01485 2.84196C7.14293 2.61823 7.20166 2.35947 7.18341 2.10064V1.96003C7.18341 1.56414 7.34079 1.18439 7.62126 0.90391C7.90173 0.623437 8.28148 0.466064 8.67738 0.466064C9.07327 0.466064 9.45302 0.623437 9.73349 0.90391C10.0139 1.18439 10.1713 1.56414 10.1713 1.96003V2.02987C10.1896 2.2887 10.2483 2.54746 10.3764 2.77119C10.5045 2.99492 10.696 3.18366 10.9263 3.29491C11.1608 3.41051 11.4245 3.45435 11.6839 3.42058C11.9433 3.38681 12.1869 3.2771 12.3833 3.1052L12.4299 3.05858C12.5693 2.91896 12.7345 2.80857 12.9162 2.73362C13.0979 2.65867 13.2925 2.62036 13.4891 2.62036C13.6857 2.62036 13.8803 2.65867 14.062 2.73362C14.2437 2.80857 14.4089 2.91896 14.5483 3.05858C14.6879 3.19798 14.7983 3.36319 14.8732 3.54489C14.9482 3.7266 14.9865 3.92119 14.9865 4.11779C14.9865 4.31439 14.9482 4.50898 14.8732 4.69069C14.7983 4.87239 14.6879 5.0376 14.5483 5.177L14.5017 5.22362C14.3298 5.42 14.2201 5.66364 14.1863 5.92304C14.1525 6.18244 14.1964 6.44614 14.312 6.68059V6.72721C14.4232 6.95756 14.6119 7.14906 14.8357 7.27714C15.0594 7.40523 15.3182 7.46396 15.577 7.44571H15.7176C16.1135 7.44571 16.4932 7.60308 16.7737 7.88356C17.0542 8.16403 17.2115 8.54378 17.2115 8.93967C17.2115 9.33556 17.0542 9.71531 16.7737 9.99579C16.4932 10.2762 16.1135 10.4336 15.7176 10.4336H15.6478C15.389 10.4518 15.1302 10.5106 14.9065 10.6386C14.6827 10.7667 14.494 10.9582 14.3828 11.1886V11.25H14.625Z" stroke="#724A15" stroke-width="1.5" stroke-linecap="round" stroke-linejoin="round"/>
</g>
<defs>
<clipPath id="clip0_265_138">
<rect width="18" height="18" fill="white"/>
</clipPath>
</defs>
</svg>
