<svg width="24" height="24" viewBox="0 0 24 24" fill="none" xmlns="http://www.w3.org/2000/svg">
<path d="M16 2L13.7 4.3C13.1503 4.86079 12.8424 5.61474 12.8424 6.4C12.8424 7.18526 13.1503 7.93921 13.7 8.5L15.5 10.3C16.0608 10.8497 16.8147 11.1576 17.6 11.1576C18.3852 11.1576 19.1392 10.8497 19.7 10.3L22 8" stroke="#F8E9A1" stroke-width="2.5" stroke-linecap="round" stroke-linejoin="round"/>
<path d="M15 15L3.29998 3.30005C2.90086 3.6911 2.58379 4.15787 2.36733 4.673C2.15086 5.18813 2.03937 5.74128 2.03937 6.30005C2.03937 6.85881 2.15086 7.41196 2.36733 7.9271C2.58379 8.44223 2.90086 8.90899 3.29998 9.30005L10.6 16.6C11.3 17.3 12.6 17.3 13.4 16.6L15 15ZM15 15L22 22" stroke="#F8E9A1" stroke-width="2.5" stroke-linecap="round" stroke-linejoin="round"/>
<path d="M2.09998 21.8L8.49998 15.5" stroke="#F8E9A1" stroke-width="2.5" stroke-linecap="round" stroke-linejoin="round"/>
<path d="M19 5L12 12" stroke="#F8E9A1" stroke-width="2.5" stroke-linecap="round" stroke-linejoin="round"/>
</svg>
