<svg width="20" height="20" viewBox="0 0 20 20" fill="none" xmlns="http://www.w3.org/2000/svg">
<path d="M14.1667 16.6666H18.3333V15C18.3333 14.4804 18.1714 13.9738 17.8701 13.5505C17.5688 13.1272 17.1432 12.8083 16.6523 12.6381C16.1614 12.4679 15.6297 12.4549 15.131 12.6008C14.6324 12.7468 14.1916 13.0445 13.87 13.4525M14.1667 16.6666H5.83332M14.1667 16.6666V15C14.1667 14.4533 14.0617 13.9308 13.87 13.4525M13.87 13.4525C13.5605 12.6791 13.0265 12.0162 12.3367 11.5492C11.6469 11.0823 10.833 10.8327 9.99999 10.8327C9.167 10.8327 8.35312 11.0823 7.66333 11.5492C6.97353 12.0162 6.43945 12.6791 6.12999 13.4525M5.83332 16.6666H1.66666V15C1.66669 14.4804 1.8286 13.9738 2.12987 13.5505C2.43115 13.1272 2.85681 12.8083 3.3477 12.6381C3.83859 12.4679 4.3703 12.4549 4.86894 12.6008C5.36757 12.7468 5.80835 13.0445 6.12999 13.4525M5.83332 16.6666V15C5.83332 14.4533 5.93832 13.9308 6.12999 13.4525M12.5 5.83331C12.5 6.49635 12.2366 7.13224 11.7678 7.60108C11.2989 8.06992 10.663 8.33331 9.99999 8.33331C9.33695 8.33331 8.70106 8.06992 8.23222 7.60108C7.76338 7.13224 7.49999 6.49635 7.49999 5.83331C7.49999 5.17027 7.76338 4.53439 8.23222 4.06555C8.70106 3.59671 9.33695 3.33331 9.99999 3.33331C10.663 3.33331 11.2989 3.59671 11.7678 4.06555C12.2366 4.53439 12.5 5.17027 12.5 5.83331ZM17.5 8.33331C17.5 8.77534 17.3244 9.19926 17.0118 9.51182C16.6993 9.82438 16.2754 9.99998 15.8333 9.99998C15.3913 9.99998 14.9674 9.82438 14.6548 9.51182C14.3423 9.19926 14.1667 8.77534 14.1667 8.33331C14.1667 7.89129 14.3423 7.46736 14.6548 7.1548C14.9674 6.84224 15.3913 6.66665 15.8333 6.66665C16.2754 6.66665 16.6993 6.84224 17.0118 7.1548C17.3244 7.46736 17.5 7.89129 17.5 8.33331ZM5.83332 8.33331C5.83332 8.77534 5.65773 9.19926 5.34517 9.51182C5.03261 9.82438 4.60868 9.99998 4.16666 9.99998C3.72463 9.99998 3.30071 9.82438 2.98815 9.51182C2.67558 9.19926 2.49999 8.77534 2.49999 8.33331C2.49999 7.89129 2.67558 7.46736 2.98815 7.1548C3.30071 6.84224 3.72463 6.66665 4.16666 6.66665C4.60868 6.66665 5.03261 6.84224 5.34517 7.1548C5.65773 7.46736 5.83332 7.89129 5.83332 8.33331Z" stroke="#CE7B11" stroke-width="1.66667" stroke-linecap="round" stroke-linejoin="round"/>
</svg>
